<svg width="16" height="16" viewBox="0 0 16 16" fill="currentColor" xmlns="http://www.w3.org/2000/svg" xmlns:xlink="http://www.w3.org/1999/xlink"><path fill-rule="evenodd" clip-rule="evenodd" d="M2.25 4.5C2.25 3.5335 3.0335 2.75 4 2.75L8.84783 2.75H12.087C13.0535 2.75 13.837 3.53351 13.837 4.5L13.837 10.5C13.837 11.4665 13.0535 12.25 12.087 12.25H11.2356L9.27668 13.6153L8.81349 13.9381L8.37514 13.5823L6.73391 12.25L4 12.25C3.0335 12.25 2.25 11.4665 2.25 10.5V4.5ZM4 4.25C3.86193 4.25 3.75 4.36193 3.75 4.5L3.75 10.5C3.75 10.6381 3.86193 10.75 4 10.75H7.00001H7.2661L7.4727 10.9177L8.88217 12.0619L10.5712 10.8847L10.7644 10.75H11L12.087 10.75C12.225 10.75 12.337 10.6381 12.337 10.5L12.337 4.5C12.337 4.36193 12.225 4.25 12.087 4.25L8.84783 4.25L4 4.25ZM11 7H5V5.5H11V7ZM5 9.5H9V8H5V9.5Z"/></svg>