<svg width="16" height="16" viewBox="0 0 16 16" fill="currentColor" xmlns="http://www.w3.org/2000/svg" xmlns:xlink="http://www.w3.org/1999/xlink"><path fill-rule="evenodd" clip-rule="evenodd" d="M5.35 3.75C5.02572 3.75 4.75 4.01761 4.75 4.36364C4.75 4.70966 5.02572 4.97727 5.35 4.97727C5.67428 4.97727 5.95 4.70966 5.95 4.36364C5.95 4.01761 5.67428 3.75 5.35 3.75ZM3.25 4.36364C3.25 3.20343 4.18311 2.25 5.35 2.25C6.51689 2.25 7.45 3.20343 7.45 4.36364C7.45 5.2606 6.89228 6.03398 6.1 6.33875V7.25H8.47273C9.30998 7.25 10.0257 6.72962 10.3141 5.99465C9.84643 5.60579 9.55 5.01756 9.55 4.36364C9.55 3.20343 10.4831 2.25 11.65 2.25C12.8169 2.25 13.75 3.20343 13.75 4.36364C13.75 5.49508 12.8626 6.42987 11.7364 6.47553C11.2469 7.80321 9.97037 8.75 8.47273 8.75H6.1V10.1158C6.89228 10.4206 7.45 11.1939 7.45 12.0909C7.45 13.2511 6.51689 14.2045 5.35 14.2045C4.18311 14.2045 3.25 13.2511 3.25 12.0909C3.25 11.1939 3.80772 10.4206 4.6 10.1158V6.33875C3.80772 6.03398 3.25 5.2606 3.25 4.36364ZM5.35 11.4773C5.02572 11.4773 4.75 11.7449 4.75 12.0909C4.75 12.4369 5.02572 12.7045 5.35 12.7045C5.67428 12.7045 5.95 12.4369 5.95 12.0909C5.95 11.7449 5.67428 11.4773 5.35 11.4773ZM11.05 4.36364C11.05 4.01761 11.3257 3.75 11.65 3.75C11.9743 3.75 12.25 4.01761 12.25 4.36364C12.25 4.70966 11.9743 4.97727 11.65 4.97727C11.3257 4.97727 11.05 4.70966 11.05 4.36364Z"/></svg>