<?xml version="1.0" encoding="UTF-8"?>
<svg width="1228px" height="288px" viewBox="0 0 1228 288" version="1.1" xmlns="http://www.w3.org/2000/svg" xmlns:xlink="http://www.w3.org/1999/xlink">
    <!-- Generator: Sketch 62 (91390) - https://sketch.com -->
    <title>Artboard</title>
    <desc>Created with Sketch.</desc>
    <g id="Artboard" stroke="none" stroke-width="1" fill="none" fill-rule="evenodd">
        <rect id="Rectangle" stroke="#000000" fill="#FFF9C8" x="214.5" y="120.5" width="66" height="48" rx="9"></rect>
        <text id="val" font-family="Noteworthy-Light, Noteworthy" font-size="20" font-weight="300" fill="#000000">
            <tspan x="238.3375" y="155">val</tspan>
        </text>
        <rect id="Rectangle" stroke="#979797" x="138.5" y="45.5" width="682" height="156" rx="22"></rect>
        <rect id="Rectangle" stroke="#000000" fill="#FFF9C8" x="214.5" y="120.5" width="66" height="48" rx="9"></rect>
        <text id="val" font-family="Noteworthy-Light, Noteworthy" font-size="20" font-weight="300" fill="#000000">
            <tspan x="238.3375" y="155">val</tspan>
        </text>
        <rect id="Rectangle" stroke="#000000" fill="#FFF9C8" x="495.5" y="120.5" width="66" height="48" rx="9"></rect>
        <text id="1" font-family="Noteworthy-Light, Noteworthy" font-size="20" font-weight="300" fill="#000000">
            <tspan x="527.35" y="155">1</tspan>
        </text>
        <rect id="Rectangle" stroke="#000000" fill="#FFF9C8" x="569.5" y="120.5" width="66" height="48" rx="9"></rect>
        <text id="2" font-family="Noteworthy-Light, Noteworthy" font-size="20" font-weight="300" fill="#000000">
            <tspan x="596.475" y="155">2</tspan>
        </text>
        <rect id="Rectangle" stroke="#000000" fill="#FFF9C8" x="643.5" y="120.5" width="66" height="48" rx="9"></rect>
        <text id="3" font-family="Noteworthy-Light, Noteworthy" font-size="20" font-weight="300" fill="#000000">
            <tspan x="670.375" y="155">3</tspan>
        </text>
        <rect id="Rectangle" stroke="#979797" x="138.5" y="47.5" width="682" height="156" rx="22"></rect>
        <text id="listeners" font-family="Noteworthy-Light, Noteworthy" font-size="20" font-weight="300" fill="#000000">
            <tspan x="401.3625" y="150">listeners</tspan>
        </text>
        <text id="location:-example/fo" font-family="Noteworthy-Light, Noteworthy" font-size="20" font-weight="300" fill="#000000">
            <tspan x="180.5625" y="91">location: </tspan>
            <tspan x="247.2125" y="91" font-family="Noteworthy-Bold, Noteworthy" font-weight="bold">example/foo</tspan>
        </text>
        <rect id="Rectangle" stroke="#979797" x="377.5" y="113.5" width="396" height="62" rx="11"></rect>
        <polygon id="Path-13" stroke="#000000" fill="#000000" points="248 246 248 182 239 195 259 195 248 182"></polygon>
        <polygon id="Path-13" stroke="#000000" fill="#000000" transform="translate(529.000000, 214.000000) scale(1, -1) translate(-529.000000, -214.000000) " points="528 246 528 182 519 195 539 195 528 182"></polygon>
        <polygon id="Path-13" stroke="#000000" fill="#000000" transform="translate(604.000000, 214.000000) scale(1, -1) translate(-604.000000, -214.000000) " points="603 246 603 182 594 195 614 195 603 182"></polygon>
        <polygon id="Path-13" stroke="#000000" fill="#000000" transform="translate(676.000000, 214.000000) scale(1, -1) translate(-676.000000, -214.000000) " points="675 246 675 182 666 195 686 195 675 182"></polygon>
        <text id="put" font-family="Noteworthy-Light, Noteworthy" font-size="20" font-weight="300" fill="#000000">
            <tspan x="269.1875" y="246">put</tspan>
        </text>
        <text id="notify" font-family="Noteworthy-Light, Noteworthy" font-size="20" font-weight="300" fill="#000000">
            <tspan x="708.2875" y="246">notify</tspan>
        </text>
    </g>
</svg>