<?xml version="1.0" encoding="UTF-8"?>
<svg width="1280px" height="800px" viewBox="0 0 1280 800" version="1.1" xmlns="http://www.w3.org/2000/svg" xmlns:xlink="http://www.w3.org/1999/xlink">
    <!-- Generator: Sketch 62 (91390) - https://sketch.com -->
    <title>flowQuery</title>
    <desc>Created with Sketch.</desc>
    <g id="flowQuery" stroke="none" stroke-width="1" fill="none" fill-rule="evenodd">
        <rect fill="#FFFFFF" x="0" y="0" width="1280" height="800"></rect>
        <rect id="Rectangle" stroke="#979797" fill="#969696" x="695.5" y="130.5" width="160" height="229" rx="8"></rect>
        <rect id="Rectangle" stroke="#000000" fill="#FFFFFF" fill-rule="nonzero" x="699" y="293" width="154" height="62" rx="6"></rect>
        <rect id="Rectangle" stroke="#000000" fill="#FFFFFF" fill-rule="nonzero" x="888" y="388" width="154" height="62" rx="6"></rect>
        <rect id="Rectangle" stroke="#000000" fill="#FFFFFF" fill-rule="nonzero" x="1087" y="474" width="154" height="62" rx="6"></rect>
        <rect id="Rectangle" stroke="#000000" fill="#FFFFFF" fill-rule="nonzero" x="699" y="293" width="154" height="62" rx="6"></rect>
        <rect id="Rectangle" stroke="#000000" fill-rule="nonzero" x="559" y="280" width="300" height="85" rx="6"></rect>
        <text id="head" fill="#595959" font-family="Arial-BoldMT, Arial" font-size="18" font-weight="bold">
            <tspan x="753.994141" y="328">head</tspan>
        </text>
        <rect id="Rectangle" stroke="#000000" fill="#FFFFFF" fill-rule="nonzero" x="698" y="206" width="154" height="62" rx="31"></rect>
        <text id="val-1" fill="#595959" font-family="Arial-BoldMT, Arial" font-size="18" font-weight="bold">
            <tspan x="757.98291" y="241">val 1</tspan>
        </text>
        <rect id="Rectangle" stroke="#000000" fill="#FFFFFF" fill-rule="nonzero" x="697" y="101" width="154" height="62" rx="31"></rect>
        <text id="val-n" fill="#595959" font-family="Arial-BoldMT, Arial" font-size="18" font-weight="bold">
            <tspan x="756.490723" y="136">val n</tspan>
        </text>
        <text id="cell1" fill="#595959" font-family="Arial-BoldMT, Arial" font-size="18" font-weight="bold">
            <tspan x="928.98291" y="425">cell1</tspan>
        </text>
        <text id="viewof" fill="#595959" font-family="Arial-BoldMT, Arial" font-size="18" font-weight="bold">
            <tspan x="596.993652" y="328">viewof</tspan>
        </text>
        <line x1="776" y1="355" x2="776.5" y2="731.5" id="Path-21" stroke="#979797" stroke-dasharray="5"></line>
        <line x1="964.75" y1="452.75" x2="964.5" y2="731.5" id="Path-21" stroke="#979797" stroke-dasharray="5"></line>
        <line x1="624.75" y1="364.75" x2="624.5" y2="731.5" id="Path-21" stroke="#979797" stroke-dasharray="5"></line>
        <text id="cell2" fill="#595959" font-family="Arial-BoldMT, Arial" font-size="18" font-weight="bold">
            <tspan x="1143.98291" y="511">cell2</tspan>
        </text>
        <line x1="1164.5" y1="536.5" x2="1164.5" y2="731.5" id="Path-21" stroke="#979797" stroke-dasharray="5"></line>
        <path d="M775,461.5 C838.672014,448.833333 870.508021,448.833333 870.508021,461.5 C870.508021,474.166667 902.005348,474.166667 965,461.5 L965,480.5 C902.005348,493.166667 870.508021,493.166667 870.508021,480.5 C870.508021,467.833333 838.672014,468.166667 775,481.5 L775,461.5 Z" id="Path-12" fill="#4F00FF"></path>
        <path d="M965,557.5 C1031.68806,544.833333 1065.03209,544.833333 1065.03209,557.5 C1065.03209,570.166667 1098.02139,570.166667 1164,557.5 L1164,576.5 C1098.02139,589.166667 1065.03209,589.166667 1065.03209,576.5 C1065.03209,563.833333 1031.68806,564.166667 965,577.5 L965,557.5 Z" id="Path-12" fill="#4F00FF"></path>
        <circle id="Oval" fill="#FF0000" cx="965" cy="472" r="10"></circle>
        <circle id="Oval" fill="#FF0000" cx="965" cy="567" r="10"></circle>
        <rect id="Rectangle" fill="#FF0000" x="955" y="472" width="20" height="95"></rect>
        <circle id="Oval" fill="#FF0000" cx="776" cy="472" r="10"></circle>
        <circle id="Oval" fill="#FF0000" cx="1164" cy="567" r="10"></circle>
        <circle id="Oval" fill="#FF0000" cx="1164" cy="639" r="10"></circle>
        <line x1="510.5" y1="471.5" x2="624" y2="471" id="Path-17" stroke="#979797"></line>
        <line x1="511.25" y1="639.75" x2="624.75" y2="639.25" id="Path-17" stroke="#979797"></line>
        <line x1="624.5" y1="638.5" x2="1163.75" y2="638.25" id="Path-17" stroke="#979797"></line>
        <circle id="Oval" stroke="#979797" fill="#D8D8D8" cx="624" cy="471" r="4.5"></circle>
        <circle id="Oval" stroke="#979797" fill="#D8D8D8" cx="625" cy="639" r="4.5"></circle>
        <path d="M624,471 L775,472" id="Path-24" stroke="#979797"></path>
        <text id="send" fill="#000000" font-family="CourierNewPS-ItalicMT, Courier New" font-size="25" font-style="italic" font-weight="normal">
            <tspan x="670" y="462">send</tspan>
        </text>
        <text id="respond" fill="#000000" font-family="CourierNewPS-ItalicMT, Courier New" font-size="25" font-style="italic" font-weight="normal">
            <tspan x="655" y="624">respond</tspan>
        </text>
        <rect id="Rectangle" fill="#FF0000" x="1154" y="567" width="20" height="72"></rect>
        <text id="{" transform="translate(477.500000, 557.000000) rotate(-12.000000) translate(-477.500000, -557.000000) " font-family="CourierNewPS-ItalicMT, Courier New" font-size="240" font-style="italic" font-weight="normal" fill="#000000">
            <tspan x="405" y="621">{</tspan>
        </text>
        <text id="Promise" font-family="CourierNewPS-ItalicMT, Courier New" font-size="64" font-style="italic" font-weight="normal" fill="#000000">
            <tspan x="168" y="581">Promise</tspan>
        </text>
        <text id="flowQueue" font-family="CourierNewPS-ItalicMT, Courier New" font-size="64" font-style="italic" font-weight="normal" fill="#000000">
            <tspan x="165" y="173">flowQueue</tspan>
        </text>
        <rect id="Rectangle" stroke="#979797" x="123.5" y="87.5" width="746" height="415" rx="40"></rect>
    </g>
</svg>